<?xml version="1.0" standalone="no"?>
<!DOCTYPE svg PUBLIC "-//W3C//DTD SVG 20010904//EN"
 "http://www.w3.org/TR/2001/REC-SVG-20010904/DTD/svg10.dtd">
<svg version="1.0" xmlns="http://www.w3.org/2000/svg"
 width="512.000000pt" height="512.000000pt" viewBox="0 0 512.000000 512.000000"
 preserveAspectRatio="xMidYMid meet">
<metadata>
Created by potrace 1.11, written by Peter Selinger 2001-2013
</metadata>
<g transform="translate(0.000000,512.000000) scale(0.100000,-0.100000)"
fill="#000000" stroke="none">
<path d="M3253 4900 c-42 -25 -68 -79 -77 -162 -1 -3 -13 -16 -29 -28 -15 -12
-42 -43 -59 -68 -18 -26 -58 -75 -90 -109 -31 -34 -60 -74 -64 -89 l-7 -27
-90 7 c-50 3 -150 6 -223 6 -115 0 -136 3 -151 18 -10 10 -37 30 -60 46 -23
15 -67 54 -98 87 l-56 59 20 26 c25 32 28 92 7 133 -54 103 -214 145 -287 75
-73 -70 -34 -188 84 -253 21 -12 46 -21 55 -21 10 0 35 -22 56 -50 21 -27 53
-63 72 -80 l35 -30 -233 0 c-211 0 -236 -2 -264 -19 -20 -12 -33 -30 -37 -50
-4 -17 9 -137 28 -268 33 -227 34 -254 38 -587 4 -338 5 -350 25 -366 16 -14
54 -18 199 -23 98 -4 265 -12 370 -17 139 -8 246 -8 380 0 104 6 319 13 478
16 210 3 298 8 320 18 17 7 42 18 56 24 20 8 28 20 32 49 10 58 8 407 -3 602
-29 490 -145 628 -512 606 -67 -4 -118 -3 -118 2 0 5 18 27 41 48 22 22 56 64
75 92 38 59 62 70 120 54 102 -28 177 -3 221 74 45 79 23 169 -49 206 -52 26
-161 26 -205 -1z m165 -121 c4 -37 -27 -61 -75 -57 -33 3 -38 6 -41 31 -6 51
3 58 60 55 48 -3 53 -5 56 -29z m-1277 4 c49 -29 49 -84 0 -68 -30 9 -81 54
-81 71 0 20 45 18 81 -3z m934 -468 c273 0 307 -5 369 -48 38 -27 83 -125 102
-223 18 -95 33 -373 34 -615 l0 -176 -31 -7 c-17 -3 -118 -6 -225 -6 -106 0
-300 -7 -431 -16 -194 -13 -278 -14 -453 -5 -118 6 -279 14 -357 17 l-143 7
-2 126 c-1 69 -2 212 -3 316 -2 156 -8 226 -34 392 -17 112 -31 215 -31 230
l0 26 473 -9 c259 -5 589 -9 732 -9z"/>
<path d="M3053 4049 c-80 -15 -124 -51 -167 -137 -14 -27 -15 -39 -5 -73 17
-57 51 -72 169 -77 121 -5 173 8 222 58 32 31 38 44 38 79 0 63 -22 96 -82
124 -62 29 -117 38 -175 26z m128 -119 c10 -6 19 -17 19 -26 0 -22 -43 -34
-126 -34 -81 0 -89 8 -52 47 18 19 32 23 80 23 33 0 68 -5 79 -10z"/>
<path d="M2295 4014 c-27 -8 -61 -18 -75 -22 -13 -4 -31 -19 -39 -34 -13 -23
-14 -34 -3 -75 26 -98 119 -168 222 -167 100 0 160 55 160 145 0 116 -134 193
-265 153z m141 -125 c8 -7 14 -22 12 -33 -2 -17 -11 -22 -49 -24 -38 -2 -52 2
-79 25 l-33 27 38 17 c39 18 81 13 111 -12z"/>
<path d="M2820 3564 c-17 -9 -46 -12 -95 -8 -38 3 -76 1 -84 -4 -19 -14 -17
-59 5 -83 17 -19 28 -20 121 -17 91 3 104 5 127 27 63 59 3 127 -74 85z"/>
<path d="M1631 3094 c-127 -34 -205 -135 -316 -407 -31 -77 -69 -191 -85 -255
-24 -94 -48 -154 -125 -309 -52 -106 -95 -201 -95 -212 0 -14 -13 -23 -46 -35
-150 -51 -243 -172 -260 -340 -6 -56 -4 -69 15 -99 12 -19 28 -38 37 -41 37
-14 117 -5 194 24 45 17 90 30 101 30 24 0 20 -18 -17 -88 -42 -78 -24 -141
49 -179 40 -20 119 -20 176 1 64 23 166 100 201 151 41 59 64 152 55 222 -4
31 -21 83 -40 119 l-34 65 23 34 c23 33 34 69 76 245 23 99 118 296 134 279
10 -10 -16 -578 -29 -643 -20 -92 -19 -110 8 -142 l23 -26 204 9 c113 5 207 8
209 7 2 -2 6 -218 9 -480 l5 -477 -49 7 c-62 8 -138 -6 -173 -31 -69 -52 -78
-174 -17 -240 31 -34 36 -36 132 -45 188 -18 421 6 505 54 61 34 82 76 77 153
-2 39 -10 71 -20 82 -22 24 -35 405 -18 538 6 50 13 172 17 273 l6 182 179 0
c98 0 178 -3 178 -6 0 -3 9 -87 20 -187 51 -478 56 -639 21 -706 -6 -10 -9
-66 -7 -123 3 -122 22 -170 77 -203 39 -23 72 -24 401 -9 226 10 234 13 282
78 30 39 30 143 0 182 -44 59 -67 69 -180 72 l-104 4 0 65 c0 36 -7 133 -15
217 -11 101 -15 225 -13 375 l3 224 125 -2 c138 -3 257 17 283 47 8 9 18 50
22 92 8 81 7 599 -1 640 -5 21 2 18 41 -25 69 -72 123 -157 127 -196 2 -23 10
-37 24 -43 12 -6 46 -59 85 -138 l66 -128 -20 -33 c-28 -44 -57 -141 -57 -188
0 -91 65 -199 164 -273 112 -84 205 -94 276 -29 65 58 62 93 -15 196 -25 32
-45 65 -45 73 0 8 12 19 26 24 51 20 71 12 133 -50 57 -57 62 -60 108 -60 35
1 56 7 76 24 27 22 29 28 29 100 -1 89 -19 160 -62 233 -33 58 -111 125 -164
143 -27 9 -35 18 -40 43 -9 46 -72 166 -157 298 -40 63 -112 188 -159 279
-103 198 -169 297 -262 395 -79 84 -121 107 -228 130 -65 14 -167 16 -785 14
-661 -3 -727 -1 -960 19 -288 25 -330 26 -404 6z m474 -120 c207 -18 502 -21
1147 -14 230 2 420 1 424 -2 3 -4 10 -91 15 -195 5 -103 14 -240 19 -303 6
-63 15 -255 20 -427 10 -350 5 -402 -40 -414 -38 -10 -222 -10 -330 1 -143 15
-974 12 -1310 -4 -162 -8 -296 -13 -297 -12 -2 2 1 36 7 77 17 133 30 624 20
824 -5 105 -11 259 -15 344 l-6 153 78 -6 c43 -3 164 -14 268 -22z m-459 -17
c3 -13 4 -39 2 -58 l-3 -35 -54 16 -53 15 41 43 c47 48 58 51 67 19z m2218
-48 c27 -16 47 -32 45 -33 -2 -2 -28 -15 -56 -30 l-53 -26 0 60 c0 33 4 60 8
60 4 0 30 -14 56 -31z m-2259 -151 l55 -23 0 -77 0 -76 -42 13 c-78 24 -150
54 -169 71 -18 16 -17 18 7 65 22 44 28 49 59 49 19 0 59 -10 90 -22z m2415
-16 c14 -20 26 -40 28 -43 1 -3 -49 -47 -111 -96 l-115 -91 -6 45 c-12 91 -8
119 19 131 14 6 25 18 25 25 0 13 101 67 125 67 6 0 21 -17 35 -38z m129 -211
l31 -60 -22 -16 c-13 -9 -63 -39 -112 -66 l-89 -51 -35 36 c-36 35 -36 35 -16
57 24 27 193 159 204 159 4 0 21 -27 39 -59z m-2714 9 c22 -11 72 -30 110 -41
39 -11 75 -22 82 -24 9 -3 8 -13 -4 -37 -24 -47 -83 -128 -94 -128 -5 0 -51
16 -103 36 l-93 36 23 81 c13 45 24 85 24 90 0 11 13 8 55 -13z m2824 -225
c17 -30 31 -60 31 -65 0 -6 -43 -32 -96 -57 l-97 -46 -17 24 c-10 12 -25 35
-34 50 -17 28 -17 28 21 52 28 18 144 87 160 96 0 1 15 -24 32 -54z m-2862
-76 c43 -17 80 -32 82 -34 2 -2 -9 -37 -24 -78 l-27 -74 -50 19 c-28 10 -74
22 -103 26 l-51 7 38 83 c21 45 42 82 48 82 5 0 44 -14 87 -31z m3015 -172
c26 -45 50 -94 53 -109 6 -24 4 -28 -14 -28 -32 0 -118 -36 -157 -65 -20 -15
-37 -25 -38 -24 -18 21 -104 205 -98 210 4 4 41 21 82 39 41 18 84 39 95 46
11 8 22 14 25 14 3 0 26 -37 52 -83z m-3079 -98 c34 -11 65 -24 69 -28 10 -9
-6 -66 -26 -97 l-16 -23 -57 30 c-32 16 -86 35 -120 42 l-62 12 19 43 19 42
56 0 c31 0 84 -9 118 -21z m3260 -163 c76 -31 147 -153 147 -250 l0 -41 -41
48 c-51 59 -85 77 -146 77 -98 0 -183 -71 -183 -151 0 -30 10 -52 50 -104 28
-36 50 -70 50 -75 0 -5 -11 -12 -24 -16 -60 -15 -204 106 -227 189 -29 109 46
243 173 307 69 34 145 40 201 16z m-3348 -55 c96 -48 165 -143 165 -229 0 -82
-69 -175 -161 -220 -46 -22 -113 -29 -123 -13 -3 5 6 30 21 57 54 96 30 198
-51 218 -31 8 -53 4 -146 -27 -141 -48 -142 -48 -134 6 31 205 235 303 429
208z m1205 -259 l0 -29 -125 -1 -125 -1 0 24 c0 26 14 29 178 33 l72 2 0 -28z
m838 -13 l3 -35 -126 -1 -125 0 0 39 0 39 123 -3 122 -3 3 -36z m-838 -179 l0
-50 -62 -1 c-78 -2 -138 1 -160 7 -21 6 -26 79 -5 87 6 3 60 6 120 6 l107 1 0
-50z m838 -32 l3 -58 -116 0 c-113 0 -115 0 -115 23 0 12 -3 39 -6 60 l-7 38
119 -3 119 -3 3 -57z m-853 -146 c-3 -8 -5 -29 -5 -48 l0 -34 -64 0 c-35 0
-84 3 -110 6 l-46 7 0 41 0 42 115 0 c92 -1 114 -3 110 -14z m855 -67 l0 -45
-104 0 -103 0 -7 31 c-12 61 -15 59 104 59 l110 0 0 -45z m-944 -125 l74 0 0
-60 c0 -40 -4 -62 -12 -65 -7 -2 -55 -5 -106 -7 l-92 -3 0 74 0 74 31 -7 c17
-3 65 -6 105 -6z m956 -45 c4 -5 8 -26 8 -46 l0 -36 -102 -6 c-56 -4 -103 -5
-104 -4 -1 1 -4 26 -8 54 l-7 53 103 -3 c57 -1 106 -6 110 -12z m-899 -195
c27 0 27 0 27 -69 l0 -68 -100 -7 c-55 -4 -104 -5 -110 -1 -5 3 -10 34 -10 69
l0 63 48 10 c26 6 63 9 82 7 19 -2 47 -4 63 -4z m917 -33 l0 -34 -116 -7 c-64
-4 -118 -5 -120 -3 -2 1 -1 19 2 38 l6 34 114 3 114 3 0 -34z m294 -166 c10
-11 16 -30 14 -42 -5 -39 -42 -49 -178 -49 -69 0 -168 -5 -220 -12 -52 -6
-107 -8 -121 -5 -29 7 -49 43 -49 87 l0 29 98 4 c53 1 174 4 268 5 157 2 172
0 188 -17z m-1311 -55 c159 2 167 1 167 -18 0 -48 -216 -86 -422 -72 -117 7
-129 14 -109 67 12 31 35 36 126 28 39 -3 145 -5 238 -5z"/>
<path d="M2915 2848 c-11 -6 -43 -35 -72 -65 -42 -43 -53 -61 -59 -99 -5 -37
-3 -51 13 -72 29 -39 88 -69 161 -82 117 -20 199 9 236 84 37 76 -11 188 -99
227 -46 21 -149 25 -180 7z m123 -104 c62 -24 82 -87 35 -105 -49 -19 -173 4
-173 32 0 15 71 89 86 89 8 0 31 -7 52 -16z"/>
<path d="M3335 2811 c-33 -15 -71 -40 -84 -55 -23 -24 -24 -30 -13 -59 7 -19
12 -42 12 -53 0 -11 13 -32 28 -47 55 -53 149 -62 228 -22 58 29 84 67 84 125
0 125 -118 177 -255 111z m143 -108 c3 -17 -3 -26 -23 -33 -29 -11 -78 -13
-87 -4 -13 12 6 44 31 53 43 16 76 9 79 -16z"/>
<path d="M3222 2441 c-126 -15 -135 -18 -159 -45 -28 -33 -27 -58 7 -216 25
-115 37 -310 21 -348 -10 -23 -10 -40 -1 -72 13 -48 43 -65 134 -76 83 -10
367 15 389 34 14 13 17 33 17 131 0 226 -40 578 -67 599 -23 16 -172 14 -341
-7z m262 -128 c12 -81 26 -234 32 -364 l7 -136 -77 -12 c-86 -12 -216 -15
-231 -3 -6 4 -11 66 -11 145 -1 98 -8 171 -24 253 -13 63 -20 117 -17 121 8 7
195 30 264 32 l51 1 6 -37z"/>
</g>
</svg>
